<svg id="Layer_1" data-name="Layer 1" xmlns="http://www.w3.org/2000/svg" viewBox="0 0 85.65 69.93"><title>LogoGaze</title><path d="M311.81,118.62a58.11,58.11,0,0,0-17.92-16.77,47.93,47.93,0,0,0-20.17-7.1v-.89a13,13,0,0,0,9-12.75,13.17,13.17,0,0,0-12.63-12.63,13,13,0,0,0-13.36,13,4,4,0,1,0,8,0,5,5,0,0,1,5.14-5,5.12,5.12,0,0,1,4.85,4.85,5,5,0,0,1-5,5.15,4,4,0,0,0-4,4v4.27a47.88,47.88,0,0,0-20.17,7.1,58.34,58.34,0,0,0-17.93,16.76,4,4,0,0,0-.35,4c3.18,6.82,7.46,11.59,12.71,14.19a14.47,14.47,0,0,0,6.57,1.61c3.29,0,6.27-1.14,9.19-2.25a33.95,33.95,0,0,1,27.95,0c4.74,1.81,9.65,3.67,15.77.64,5.24-2.6,9.52-7.37,12.71-14.19A4,4,0,0,0,311.81,118.62Zm-68.28,11c-3.07-1.53-5.75-4.33-8-8.34a50.08,50.08,0,0,1,14.06-12.57c1.16-.68,2.76-1.63,4.75-2.57a18.38,18.38,0,0,0,.82,21.67l-2.3.85C248.36,130.41,246.4,131.06,243.53,129.64Zm20.61-4.1-1.5-1.37a10.47,10.47,0,1,1,13.49.56l-1,.78a39.23,39.23,0,0,0-5.4-.36A39.72,39.72,0,0,0,264.14,125.54Zm31.76,4.1c-2.39.62-4.29-.12-9.36-1a14.1,14.1,0,0,1-2.28-.84,18.47,18.47,0,0,0,.8-21.68c2,.94,3.58,1.89,4.74,2.57a49.81,49.81,0,0,1,14.06,12.57C301.65,125.31,299.22,128.76,295.9,129.64Z" transform="translate(-226.89 -68.48)"/></svg>